<svg width="258" height="258" viewBox="0 0 258 258" fill="none" xmlns="http://www.w3.org/2000/svg">
<g filter="url(#filter0_d_1_9)">
<rect x="4" width="250" height="250" rx="53" fill="url(#paint0_linear_1_9)"/>
<path fill-rule="evenodd" clip-rule="evenodd" d="M181.969 117.395C182.607 118.51 182.816 119.779 182.885 121.206L182.976 123.107V136.401L183.068 138.304C183.254 141.413 185.517 143.711 188.611 143.906L190.48 144V123.107L190.573 121.206C190.65 119.795 190.857 118.502 191.505 117.379C192.165 116.227 193.114 115.271 194.254 114.608C195.395 113.944 196.688 113.596 198.004 113.599C199.319 113.601 200.611 113.954 201.749 114.622C202.888 115.289 203.832 116.249 204.489 117.403C205.127 118.518 205.326 119.811 205.403 121.206L205.495 123.101V136.401L205.588 138.304C205.781 141.428 208.027 143.727 211.13 143.906L213 144V121.206C213 117.175 211.419 113.309 208.605 110.459C205.791 107.608 201.974 106.006 197.993 106.004C195.862 106.002 193.756 106.46 191.814 107.348C189.872 108.236 188.14 109.533 186.733 111.153C185.325 109.534 183.593 108.237 181.651 107.348C179.71 106.46 177.604 106.001 175.473 106.002C172.356 106.002 169.464 106.96 167.068 108.613C165.606 106.962 162.336 106.002 160.458 106.002V144L162.336 143.906C165.476 143.697 167.746 141.46 167.868 138.304L167.969 136.401V123.107L168.061 121.206C168.14 119.771 168.337 118.51 168.977 117.387C169.638 116.236 170.586 115.28 171.726 114.616C172.866 113.952 174.158 113.601 175.473 113.601C176.789 113.601 178.082 113.952 179.223 114.618C180.363 115.284 181.31 116.242 181.969 117.395ZM53.5046 143.908L55.3822 144H83.5268L83.4342 142.105C83.1801 138.981 80.9951 136.698 77.8999 136.495L76.0222 136.401H59.1374L81.6492 113.599L81.5566 111.706C81.4108 108.55 79.1332 106.269 76.0222 106.096L74.1446 106.01L46 106.002L46.0926 107.903C46.3389 110.997 48.5554 113.327 51.625 113.507L53.5046 113.601H70.3894L47.8776 136.403L47.9702 138.304C48.1554 141.436 50.3877 143.705 53.5046 143.906V143.908ZM153.091 111.564C154.834 113.328 156.217 115.423 157.16 117.728C158.103 120.033 158.588 122.504 158.588 124.999C158.588 127.494 158.103 129.965 157.16 132.27C156.217 134.575 154.834 136.67 153.091 138.434C149.571 141.996 144.797 143.997 139.82 143.997C134.843 143.997 130.069 141.996 126.549 138.434C119.221 131.015 119.221 118.983 126.549 111.564C128.29 109.8 130.357 108.401 132.632 107.447C134.907 106.492 137.345 106 139.808 106C142.275 105.998 144.718 106.489 146.997 107.444C149.276 108.399 151.347 109.8 153.091 111.566V111.564ZM147.782 116.944C149.892 119.083 151.078 121.983 151.078 125.006C151.078 128.029 149.892 130.929 147.782 133.068C145.67 135.205 142.806 136.405 139.82 136.405C136.834 136.405 133.97 135.205 131.858 133.068C129.748 130.929 128.562 128.029 128.562 125.006C128.562 121.983 129.748 119.083 131.858 116.944C133.97 114.807 136.834 113.607 139.82 113.607C142.806 113.607 145.67 114.807 147.782 116.944ZM100.427 106C102.89 106.001 105.329 106.493 107.604 107.448C109.879 108.403 111.946 109.802 113.687 111.566C121.016 118.983 121.016 131.017 113.687 138.434C110.166 141.996 105.393 143.997 100.416 143.997C95.4384 143.997 90.6649 141.996 87.1442 138.434C79.8169 131.015 79.8169 118.983 87.1442 111.564C88.8852 109.8 90.9523 108.401 93.2274 107.447C95.5025 106.492 97.941 106 100.404 106H100.427ZM108.377 116.94C110.488 119.079 111.674 121.979 111.674 125.003C111.674 128.027 110.488 130.927 108.377 133.066C106.265 135.203 103.401 136.403 100.416 136.403C97.4297 136.403 94.566 135.203 92.4539 133.066C90.3434 130.927 89.1578 128.027 89.1578 125.004C89.1578 121.981 90.3434 119.081 92.4539 116.942C94.566 114.805 97.4297 113.605 100.416 113.605C103.401 113.605 106.265 114.805 108.377 116.942V116.94Z" fill="white"/>
</g>
<defs>
<filter id="filter0_d_1_9" x="0" y="0" width="258" height="258" filterUnits="userSpaceOnUse" color-interpolation-filters="sRGB">
<feFlood flood-opacity="0" result="BackgroundImageFix"/>
<feColorMatrix in="SourceAlpha" type="matrix" values="0 0 0 0 0 0 0 0 0 0 0 0 0 0 0 0 0 0 127 0" result="hardAlpha"/>
<feOffset dy="4"/>
<feGaussianBlur stdDeviation="2"/>
<feComposite in2="hardAlpha" operator="out"/>
<feColorMatrix type="matrix" values="0 0 0 0 0 0 0 0 0 0 0 0 0 0 0 0 0 0 0.25 0"/>
<feBlend mode="normal" in2="BackgroundImageFix" result="effect1_dropShadow_1_9"/>
<feBlend mode="normal" in="SourceGraphic" in2="effect1_dropShadow_1_9" result="shape"/>
</filter>
<linearGradient id="paint0_linear_1_9" x1="168" y1="14" x2="47" y2="235" gradientUnits="userSpaceOnUse">
<stop stop-color="#0395FC"/>
<stop offset="1" stop-color="#0239FF"/>
</linearGradient>
</defs>
</svg>
